<svg width="120" height="27" viewBox="0 0 120 27" fill="none" xmlns="http://www.w3.org/2000/svg">
<g clip-path="url(#clip0_9349_6834)">
<path d="M41.9557 20.7032L39.4501 22.1504H30.1837V7.03039H39.4501L41.9557 8.47759V20.7032ZM33.2077 9.62239V19.5584H38.9317V9.62239H33.2077ZM55.4103 20.8112L52.9047 22.2584H48.3039L45.7983 20.8112V12.6896L48.3039 11.2424H52.9047L55.4103 12.6896V20.8112ZM48.7575 13.7696V19.7312H52.4511V13.7696H48.7575ZM61.9937 13.8776V19.6232H67.3505V22.1504H61.5401L59.0345 20.7032V12.7976L61.5401 11.3504H67.3505V13.8776H61.9937ZM69.6769 13.8776V11.3504H71.6641V9.53599L74.6233 7.82959V11.3504H76.9993V13.8776H74.6233V19.6232H76.9993V22.1504H74.1697L71.6641 20.7032V13.8776H69.6769ZM83.1503 22.1504H80.1911V6.38239H83.1503V12.128L84.6839 11.2424H87.5135L90.0191 12.6896V22.1504H87.0599V13.7696H83.1503V22.1504ZM100.334 13.8776H96.6185V22.1504H93.6593V11.3504H96.1001L96.6185 12.236L98.1521 11.3504H100.334V13.8776ZM102.888 20.8112V11.3504H105.847V19.7312H109.54V11.3504H112.5V22.2584H110.059L109.54 21.3728L108.007 22.2584H105.393L102.888 20.8112Z" fill="#525252"/>
<rect x="5.39844" y="3.375" width="17.55" height="20.25" rx="1.35" fill="#262626"/>
<path d="M16.5359 10.125L18.8984 13.0781L16.5359 16.0312" stroke="#FFC117" stroke-width="1.62"/>
<path d="M11.8117 10.125L9.44922 13.0781L11.8117 16.0312" stroke="#FFC117" stroke-width="1.62"/>
</g>
<defs>
<clipPath id="clip0_9349_6834">
<rect width="120" height="27" fill="white"/>
</clipPath>
</defs>
</svg>
